<?xml version="1.0" encoding="UTF-8" standalone="no"?>
<!DOCTYPE svg PUBLIC "-//W3C//DTD SVG 1.1//EN" "http://www.w3.org/Graphics/SVG/1.1/DTD/svg11.dtd">
<svg version="1.1" xmlns="http://www.w3.org/2000/svg" xmlns:xlink="http://www.w3.org/1999/xlink" preserveAspectRatio="xMidYMid meet" viewBox="0 0 640 430" width="640" height="430"><defs><path d="M620.45 0C620.45 257.96 620.45 401.26 620.45 429.91C620.45 429.91 620.45 429.91 620.45 429.91C271.69 429.91 77.93 429.91 39.18 429.91C39.18 429.91 39.18 429.91 39.18 429.91C39.18 171.97 39.18 28.67 39.18 0C39.18 0 39.18 0 39.18 0C387.94 0 581.7 0 620.45 0C620.45 0 620.45 0 620.45 0Z" id="dKbngsx"></path><path d="M620.45 0C620.45 257.96 620.45 401.26 620.45 429.91C620.45 429.91 620.45 429.91 620.45 429.91C271.69 429.91 77.93 429.91 39.18 429.91C39.18 429.91 39.18 429.91 39.18 429.91C39.18 171.97 39.18 28.67 39.18 0C39.18 0 39.18 0 39.18 0C387.94 0 581.7 0 620.45 0C620.45 0 620.45 0 620.45 0Z" id="l10UVDEY32"></path><path d="M281.07 208.14C281.07 269.46 331.08 319.16 392.76 319.16C454.44 319.16 504.44 269.46 504.44 208.14C504.44 146.82 454.44 97.11 392.76 97.11C331.08 97.11 281.07 146.82 281.07 208.14Z" id="gHJ2lPJK"></path><path d="M281.07 208.14C281.07 269.46 331.08 319.16 392.76 319.16C454.44 319.16 504.44 269.46 504.44 208.14C504.44 146.82 454.44 97.11 392.76 97.11C331.08 97.11 281.07 146.82 281.07 208.14Z" id="g1yeE6XlBi"></path><path d="M392.5 302.5C405.03 311.54 411.97 316.55 413.36 317.56C413.36 317.56 469.74 364.78 510.44 383.45C510.44 386.77 510.44 403.46 510.44 433.5C467.59 433.5 124.81 433.5 81.96 433.5C78.95 411.75 77.28 399.67 76.95 397.24C76.95 397.24 149.51 335.15 184.24 299.92C188.01 298.74 197.4 295.8 212.43 291.09C248.45 293.37 374.49 301.36 392.5 302.5Z" id="alpdXcvBm"></path><path d="M392.5 302.5C405.03 311.54 411.97 316.55 413.36 317.56C413.36 317.56 469.74 364.78 510.44 383.45C510.44 386.77 510.44 403.46 510.44 433.5C467.59 433.5 124.81 433.5 81.96 433.5C78.95 411.75 77.28 399.67 76.95 397.24C76.95 397.24 149.51 335.15 184.24 299.92C188.01 298.74 197.4 295.8 212.43 291.09C248.45 293.37 374.49 301.36 392.5 302.5Z" id="a1NeT9aZX1"></path><path d="M413.36 317.56C411.97 316.55 405.03 311.54 392.5 302.52C382.93 301.9 377.61 301.58 376.56 301.51C411.09 337.91 457.88 380.86 510.44 411.81C510.44 406.13 510.44 386.28 510.44 383.45C469.74 364.78 432.78 330.74 413.36 317.56Z" id="a7CO1Gk4N"></path><path d="M413.36 317.56C411.97 316.55 405.03 311.54 392.5 302.52C382.93 301.9 377.61 301.58 376.56 301.51C411.09 337.91 457.88 380.86 510.44 411.81C510.44 406.13 510.44 386.28 510.44 383.45C469.74 364.78 432.78 330.74 413.36 317.56Z" id="a2tEkoAMUf"></path><path d="M190.73 419.87C198.76 425.28 216.81 429.48 216.81 429.48C222.41 431.22 228.12 432.55 233.92 433.5C216.18 433.5 74.2 433.5 56.46 433.5C56.46 433.5 63.11 407.51 81.96 392.81C82.86 392.11 83.62 391.61 83.8 391.48C84.73 390.83 105.73 384.8 116.37 391.61C122.66 395.95 127.61 401.96 130.65 408.96C157.48 392.39 175.83 407.43 181.76 413.29C184.54 415.75 187.54 417.95 190.73 419.87Z" id="a1MjKhnnEi"></path><path d="M190.73 419.87C198.76 425.28 216.81 429.48 216.81 429.48C222.41 431.22 228.12 432.55 233.92 433.5C216.18 433.5 74.2 433.5 56.46 433.5C56.46 433.5 63.11 407.51 81.96 392.81C82.86 392.11 83.62 391.61 83.8 391.48C84.73 390.83 105.73 384.8 116.37 391.61C122.66 395.95 127.61 401.96 130.65 408.96C157.48 392.39 175.83 407.43 181.76 413.29C184.54 415.75 187.54 417.95 190.73 419.87Z" id="aZP1UbXuO"></path><path d="M535.61 393.15C535.61 393.15 527.72 371.39 506.11 371.37C502.4 371.42 498.74 372.17 495.32 373.62C487.97 376.29 481.99 381.77 478.71 388.84C478.71 388.84 450.89 374.87 434.7 403.25C434.7 403.25 420.54 394.08 406.17 407.09C404.58 408.57 403.08 410.15 401.67 411.81C397.53 416.13 392.96 420.02 388.03 423.44C380.82 428.71 371.37 433.5 360.66 433.5C375.32 433.5 448.63 433.5 580.57 433.5C577.9 423.58 575.15 416.48 572.32 412.2C564.98 408.39 557.38 394.29 535.61 393.15Z" id="b48M8xIxq4"></path><path d="M535.61 393.15C535.61 393.15 527.72 371.39 506.11 371.37C502.4 371.42 498.74 372.17 495.32 373.62C487.97 376.29 481.99 381.77 478.71 388.84C478.71 388.84 450.89 374.87 434.7 403.25C434.7 403.25 420.54 394.08 406.17 407.09C404.58 408.57 403.08 410.15 401.67 411.81C397.53 416.13 392.96 420.02 388.03 423.44C380.82 428.71 371.37 433.5 360.66 433.5C375.32 433.5 448.63 433.5 580.57 433.5C577.9 423.58 575.15 416.48 572.32 412.2C564.98 408.39 557.38 394.29 535.61 393.15Z" id="efZtwES3H"></path><path d="M326.7 225.45C340.27 240.87 378.17 283.41 413.36 317.56C398.52 312.5 382.2 314.13 368.65 322.03C362.16 325.69 354.56 326.94 347.24 325.53C343.18 324.79 339.25 323.41 335.63 321.46C328.29 317.52 319.61 316.91 311.8 319.81C308.12 321.15 304.64 322.97 301.45 325.23C293.62 330.98 283.99 333.78 274.26 333.16C266.74 332.56 259.54 329.89 253.46 325.46C249.6 322.74 245.16 320.95 240.5 320.19C228.84 318.22 216.87 319.83 206.16 324.83C206.16 324.83 207.21 299.92 184.24 299.92C184.24 299.92 226.52 260.18 253.3 226.13C256.61 221.93 261.67 219.49 267.04 219.51C276.34 219.51 308.89 219.51 313.54 219.51C318.58 219.51 323.38 221.67 326.7 225.45Z" id="drqocdflY"></path><path d="M326.7 225.45C340.27 240.87 378.17 283.41 413.36 317.56C398.52 312.5 382.2 314.13 368.65 322.03C362.16 325.69 354.56 326.94 347.24 325.53C343.18 324.79 339.25 323.41 335.63 321.46C328.29 317.52 319.61 316.91 311.8 319.81C308.12 321.15 304.64 322.97 301.45 325.23C293.62 330.98 283.99 333.78 274.26 333.16C266.74 332.56 259.54 329.89 253.46 325.46C249.6 322.74 245.16 320.95 240.5 320.19C228.84 318.22 216.87 319.83 206.16 324.83C206.16 324.83 207.21 299.92 184.24 299.92C184.24 299.92 226.52 260.18 253.3 226.13C256.61 221.93 261.67 219.49 267.04 219.51C276.34 219.51 308.89 219.51 313.54 219.51C318.58 219.51 323.38 221.67 326.7 225.45Z" id="dbsDuAVoU"></path><path d="M313.54 219.51C308.89 219.51 271.69 219.51 267.04 219.51C266.3 219.51 265.56 219.56 264.84 219.65C269.23 220.53 304.41 227.62 308.82 228.49C313.29 229.39 317.27 231.88 320.02 235.5C341.56 263.45 364.83 290.02 389.71 315.06C397.67 314.03 405.78 314.89 413.36 317.56C378.17 283.39 340.27 240.87 326.7 225.45C323.38 221.67 318.58 219.51 313.54 219.51Z" id="c4EX4J96C"></path><path d="M313.54 219.51C308.89 219.51 271.69 219.51 267.04 219.51C266.3 219.51 265.56 219.56 264.84 219.65C269.23 220.53 304.41 227.62 308.82 228.49C313.29 229.39 317.27 231.88 320.02 235.5C341.56 263.45 364.83 290.02 389.71 315.06C397.67 314.03 405.78 314.89 413.36 317.56C378.17 283.39 340.27 240.87 326.7 225.45C323.38 221.67 318.58 219.51 313.54 219.51Z" id="dYRVEoBOS"></path><path d="M237.61 291.52C238.52 292.28 238.88 293.53 238.49 294.66C237.59 297.23 233.07 310.11 224.96 333.27C223.08 332.43 208.05 325.67 206.18 324.83C222.6 305.06 231.73 294.09 233.56 291.89C234.58 290.69 236.38 290.51 237.61 291.52Z" id="a1sVppoLl3"></path><path d="M237.61 291.52C238.52 292.28 238.88 293.53 238.49 294.66C237.59 297.23 233.07 310.11 224.96 333.27C223.08 332.43 208.05 325.67 206.18 324.83C222.6 305.06 231.73 294.09 233.56 291.89C234.58 290.69 236.38 290.51 237.61 291.52Z" id="dvJlYfeUr"></path><path d="M346.47 282.07C347.31 281.63 348.34 281.81 348.98 282.5C351.8 285.49 365.87 300.54 391.2 327.61C388.72 327.17 368.86 323.65 366.37 323.21C353.93 300.21 347.01 287.43 345.64 284.87C345.08 283.86 345.47 282.63 346.47 282.07Z" id="b1StIS9QrN"></path><path d="M346.47 282.07C347.31 281.63 348.34 281.81 348.98 282.5C351.8 285.49 365.87 300.54 391.2 327.61C388.72 327.17 368.86 323.65 366.37 323.21C353.93 300.21 347.01 287.43 345.64 284.87C345.08 283.86 345.47 282.63 346.47 282.07Z" id="a5Fzb9QQD"></path><path d="M293.62 364.5C292.47 364.35 291.56 363.49 291.34 362.35C290.89 359.88 288.58 347.5 284.45 325.23C286.15 325.23 299.76 325.23 301.47 325.23C298.55 347.42 296.95 359.75 296.62 362.2C296.44 363.67 295.09 364.7 293.62 364.5Z" id="a9cTVx08ux"></path><path d="M293.62 364.5C292.47 364.35 291.56 363.49 291.34 362.35C290.89 359.88 288.58 347.5 284.45 325.23C286.15 325.23 299.76 325.23 301.47 325.23C298.55 347.42 296.95 359.75 296.62 362.2C296.44 363.67 295.09 364.7 293.62 364.5Z" id="etGXltTLw"></path><path d="M495.44 372.2C490 374.33 482.01 378.84 478.09 387.59C478.09 387.59 449.9 373.39 433.72 401.75C433.72 401.75 419.29 393.97 404.93 406.99C403.62 408.21 402.41 409.53 401.29 410.92C397.38 415.59 392.92 419.79 388.03 423.42C394.68 421.24 402.24 417.75 407.76 412.27C410.38 409.68 413.77 407.95 417.43 407.35C424.93 406.03 432.66 407.63 439.03 411.81C439.03 411.81 455.52 383.09 490.49 401.75C490.49 401.75 490.87 386.51 505.36 383.45C519.86 380.39 530.76 403.18 530.76 403.18C530.76 403.18 554.48 398.01 572.32 412.19C566.13 402.87 555.41 393.72 537.07 392.26C530.96 387.81 528.13 370.05 506.52 370.02C502.72 370.05 498.96 370.78 495.44 372.2Z" id="g3Rb7EA2cd"></path><path d="M495.44 372.2C490 374.33 482.01 378.84 478.09 387.59C478.09 387.59 449.9 373.39 433.72 401.75C433.72 401.75 419.29 393.97 404.93 406.99C403.62 408.21 402.41 409.53 401.29 410.92C397.38 415.59 392.92 419.79 388.03 423.42C394.68 421.24 402.24 417.75 407.76 412.27C410.38 409.68 413.77 407.95 417.43 407.35C424.93 406.03 432.66 407.63 439.03 411.81C439.03 411.81 455.52 383.09 490.49 401.75C490.49 401.75 490.87 386.51 505.36 383.45C519.86 380.39 530.76 403.18 530.76 403.18C530.76 403.18 554.48 398.01 572.32 412.19C566.13 402.87 555.41 393.72 537.07 392.26C530.96 387.81 528.13 370.05 506.52 370.02C502.72 370.05 498.96 370.78 495.44 372.2Z" id="aJxxvufnj"></path><path d="M131.1 406.18C128.41 399.62 123.81 394.02 117.88 390.09C107.23 383.29 94.21 384.35 83.81 391.48C94.98 389.49 116.9 389.82 126.72 419.2C126.72 419.2 149.19 400.19 171.78 416.78C177.87 421.4 184.72 424.95 192.02 427.24C200.02 429.75 208.47 430.52 216.79 429.46C207.85 426.85 199.31 422.98 191.47 417.95C188.62 415.96 185.95 413.72 183.51 411.24C177.58 405.38 157.92 389.6 131.1 406.18Z" id="a2jy45hjWa"></path><path d="M131.1 406.18C128.41 399.62 123.81 394.02 117.88 390.09C107.23 383.29 94.21 384.35 83.81 391.48C94.98 389.49 116.9 389.82 126.72 419.2C126.72 419.2 149.19 400.19 171.78 416.78C177.87 421.4 184.72 424.95 192.02 427.24C200.02 429.75 208.47 430.52 216.79 429.46C207.85 426.85 199.31 422.98 191.47 417.95C188.62 415.96 185.95 413.72 183.51 411.24C177.58 405.38 157.92 389.6 131.1 406.18Z" id="dVhZtREGf"></path></defs><g><g><g><use xlink:href="#dKbngsx" opacity="1" fill="#000000" fill-opacity="0"></use><g><use xlink:href="#dKbngsx" opacity="1" fill-opacity="0" stroke="#000000" stroke-width="1" stroke-opacity="0"></use></g></g><g><use xlink:href="#l10UVDEY32" opacity="1" fill="#000000" fill-opacity="0"></use><g><use xlink:href="#l10UVDEY32" opacity="1" fill-opacity="0" stroke="#000000" stroke-width="1" stroke-opacity="0"></use></g></g><g><use xlink:href="#gHJ2lPJK" opacity="1" fill="#f74f73" fill-opacity="1"></use><g><use xlink:href="#gHJ2lPJK" opacity="1" fill-opacity="0" stroke="#000000" stroke-width="1" stroke-opacity="0"></use></g></g><g><use xlink:href="#g1yeE6XlBi" opacity="1" fill="#000000" fill-opacity="0"></use><g><use xlink:href="#g1yeE6XlBi" opacity="1" fill-opacity="0" stroke="#000000" stroke-width="1" stroke-opacity="0"></use></g></g><g><use xlink:href="#alpdXcvBm" opacity="1" fill="#4673aa" fill-opacity="1"></use><g><use xlink:href="#alpdXcvBm" opacity="1" fill-opacity="0" stroke="#000000" stroke-width="1" stroke-opacity="0"></use></g></g><g><use xlink:href="#a1NeT9aZX1" opacity="1" fill="#000000" fill-opacity="0"></use><g><use xlink:href="#a1NeT9aZX1" opacity="1" fill-opacity="0" stroke="#000000" stroke-width="1" stroke-opacity="0"></use></g></g><g><use xlink:href="#a7CO1Gk4N" opacity="1" fill="#aeb7d8" fill-opacity="1"></use><g><use xlink:href="#a7CO1Gk4N" opacity="1" fill-opacity="0" stroke="#000000" stroke-width="1" stroke-opacity="0"></use></g></g><g><use xlink:href="#a2tEkoAMUf" opacity="1" fill="#000000" fill-opacity="0"></use><g><use xlink:href="#a2tEkoAMUf" opacity="1" fill-opacity="0" stroke="#000000" stroke-width="1" stroke-opacity="0"></use></g></g><g><use xlink:href="#a1MjKhnnEi" opacity="1" fill="#698779" fill-opacity="1"></use><g><use xlink:href="#a1MjKhnnEi" opacity="1" fill-opacity="0" stroke="#000000" stroke-width="1" stroke-opacity="0"></use></g></g><g><use xlink:href="#aZP1UbXuO" opacity="1" fill="#000000" fill-opacity="0"></use><g><use xlink:href="#aZP1UbXuO" opacity="1" fill-opacity="0" stroke="#000000" stroke-width="1" stroke-opacity="0"></use></g></g><g><use xlink:href="#b48M8xIxq4" opacity="1" fill="#698779" fill-opacity="1"></use><g><use xlink:href="#b48M8xIxq4" opacity="1" fill-opacity="0" stroke="#000000" stroke-width="1" stroke-opacity="0"></use></g></g><g><use xlink:href="#efZtwES3H" opacity="1" fill="#000000" fill-opacity="0"></use><g><use xlink:href="#efZtwES3H" opacity="1" fill-opacity="0" stroke="#000000" stroke-width="1" stroke-opacity="0"></use></g></g><g><use xlink:href="#drqocdflY" opacity="1" fill="#c4dfe8" fill-opacity="1"></use><g><use xlink:href="#drqocdflY" opacity="1" fill-opacity="0" stroke="#000000" stroke-width="1" stroke-opacity="0"></use></g></g><g><use xlink:href="#dbsDuAVoU" opacity="1" fill="#000000" fill-opacity="0"></use><g><use xlink:href="#dbsDuAVoU" opacity="1" fill-opacity="0" stroke="#000000" stroke-width="1" stroke-opacity="0"></use></g></g><g><use xlink:href="#c4EX4J96C" opacity="1" fill="#fffaff" fill-opacity="1"></use><g><use xlink:href="#c4EX4J96C" opacity="1" fill-opacity="0" stroke="#000000" stroke-width="1" stroke-opacity="0"></use></g></g><g><use xlink:href="#dYRVEoBOS" opacity="1" fill="#000000" fill-opacity="0"></use><g><use xlink:href="#dYRVEoBOS" opacity="1" fill-opacity="0" stroke="#000000" stroke-width="1" stroke-opacity="0"></use></g></g><g><use xlink:href="#a1sVppoLl3" opacity="1" fill="#4673aa" fill-opacity="1"></use><g><use xlink:href="#a1sVppoLl3" opacity="1" fill-opacity="0" stroke="#000000" stroke-width="1" stroke-opacity="0"></use></g></g><g><use xlink:href="#dvJlYfeUr" opacity="1" fill="#000000" fill-opacity="0"></use><g><use xlink:href="#dvJlYfeUr" opacity="1" fill-opacity="0" stroke="#000000" stroke-width="1" stroke-opacity="0"></use></g></g><g><use xlink:href="#b1StIS9QrN" opacity="1" fill="#4673aa" fill-opacity="1"></use><g><use xlink:href="#b1StIS9QrN" opacity="1" fill-opacity="0" stroke="#000000" stroke-width="1" stroke-opacity="0"></use></g></g><g><use xlink:href="#a5Fzb9QQD" opacity="1" fill="#000000" fill-opacity="0"></use><g><use xlink:href="#a5Fzb9QQD" opacity="1" fill-opacity="0" stroke="#000000" stroke-width="1" stroke-opacity="0"></use></g></g><g><use xlink:href="#a9cTVx08ux" opacity="1" fill="#c4dfe8" fill-opacity="1"></use><g><use xlink:href="#a9cTVx08ux" opacity="1" fill-opacity="0" stroke="#000000" stroke-width="1" stroke-opacity="0"></use></g></g><g><use xlink:href="#etGXltTLw" opacity="1" fill="#000000" fill-opacity="0"></use><g><use xlink:href="#etGXltTLw" opacity="1" fill-opacity="0" stroke="#000000" stroke-width="1" stroke-opacity="0"></use></g></g><g><use xlink:href="#g3Rb7EA2cd" opacity="1" fill="#b0d1ba" fill-opacity="1"></use><g><use xlink:href="#g3Rb7EA2cd" opacity="1" fill-opacity="0" stroke="#000000" stroke-width="1" stroke-opacity="0"></use></g></g><g><use xlink:href="#aJxxvufnj" opacity="1" fill="#000000" fill-opacity="0"></use><g><use xlink:href="#aJxxvufnj" opacity="1" fill-opacity="0" stroke="#000000" stroke-width="1" stroke-opacity="0"></use></g></g><g><use xlink:href="#a2jy45hjWa" opacity="1" fill="#b0d1ba" fill-opacity="1"></use><g><use xlink:href="#a2jy45hjWa" opacity="1" fill-opacity="0" stroke="#000000" stroke-width="1" stroke-opacity="0"></use></g></g><g><use xlink:href="#dVhZtREGf" opacity="1" fill="#000000" fill-opacity="0"></use><g><use xlink:href="#dVhZtREGf" opacity="1" fill-opacity="0" stroke="#000000" stroke-width="1" stroke-opacity="0"></use></g></g></g></g></svg>